{"title":"Naruto Episodes 98-113 New Hokage Sasukes Decision FIXED MP4 OOT","uid":7927278,"size":2291123220,"categoryP":"video","categoryS":"tv_shows","magnet":"?xt=urn:btih:b17a8f3f6c4463d2d37ef79bd06cb6622dbf9540&amp;dn=Naruto+Episodes+98-113+New+Hokage+Sasukes+Decision+FIXED+MP4+OOT&amp;tr=udp%3A%2F%2Ftracker.openbittorrent.com%3A80&amp;tr=udp%3A%2F%2Fopen.demonii.com%3A1337&amp;tr=udp%3A%2F%2Ftracker.coppersurfer.tk%3A6969&amp;tr=udp%3A%2F%2Fexodus.desync.com%3A6969","seeders":0,"leechers":0,"uploader":"OOTR","files":1,"time":1355610415,"description":"Naruto Episodes 98-113, minus filler (101-107)\n\nTHIS HAS THE FIXED AUDIO AND VIDEO ENDING.\n\nEdited to omit intros/outros and promote continuity.\n\nPlease SEED and enjoy! Leave a comment if you like.\n\nFormat                                   : MPEG-4\nCodec ID                                 : M4V \nFile size                                : 2.13 GiB\nDuration                                 : 3h 14mn\nOverall bit rate mode                    : Variable\nOverall bit rate                         : 1 570 Kbps\nEncoded date                             : UTC 2012-12-15 12:04:27\n\nVideo\nID                                       : 1\nFormat                                   : AVC\nFormat/Info                              : Advanced Video Codec\nFormat profile                           : &lt;a class=&quot;__cf_email__&quot; href=&quot;/cdn-cgi/l/email-protection&quot; data-cfemail=&quot;aae8cbd9cfc6c3c4cfeae699849a&quot;&gt;[email&amp;#160;protected]&lt;/a&gt;&lt;script cf-hash='f9e31' type=&quot;text/javascript&quot;&gt;\n/* &lt;![CDATA[ */!function(){try{var t=&quot;currentScript&quot;in document?document.currentScript:function(){for(var t=document.getElementsByTagName(&quot;script&quot;),e=t.length;e--;)if(t[e].getAttribute(&quot;cf-hash&quot;))return t[e]}();if(t&amp;&amp;t.previousSibling){var e,r,n,i,c=t.previousSibling,a=c.getAttribute(&quot;data-cfemail&quot;);if(a){for(e=&quot;&quot;,r=parseInt(a.substr(0,2),16),n=2;a.length-n;n+=2)i=parseInt(a.substr(n,2),16)^r,e+=String.fromCharCode(i);e=document.createTextNode(e),c.parentNode.replaceChild(e,c)}}}catch(u){}}();/* ]]&gt; */&lt;/script&gt;\nFormat settings, CABAC                   : No\nFormat settings, ReFrames                : 2 frames\nCodec ID                                 : avc1\nCodec ID/Info                            : Advanced Video Coding\nDuration                                 : 3h 14mn\nSource duration                          : 3h 14mn\nBit rate mode                            : Variable\nBit rate                                 : 1 442 Kbps\nWidth                                    : 640 pixels\nHeight                                   : 480 pixels\nDisplay aspect ratio                     : 4:3\nFrame rate mode                          : Variable\nFrame rate                               : 23.976 fps\nMinimum frame rate                       : 23.976 fps\nMaximum frame rate                       : 24.000 fps\nStandard                                 : NTSC\nColor space                              : YUV\nChroma subsampling                       : 4:2:0\nBit depth                                : 8 bits\nScan type                                : Progressive\nBits/(Pixel*Frame)                       : 0.196\nStream size                              : 1.96 GiB (92%)\n\nAudio\nID                                       : 2\nFormat                                   : AAC\nFormat/Info                              : Advanced Audio Codec\nFormat profile                           : LC\nCodec ID                                 : 40\nDuration                                 : 3h 14mn\nSource duration                          : 3h 14mn\nBit rate mode                            : Variable\nBit rate                                 : 126 Kbps\nMaximum bit rate                         : 210 Kbps\nChannel(s)                               : 2 channels\nChannel positions                        : Front: L R\nSampling rate                            : 44.1 KHz\nCompression mode                         : Lossy\nStream size                              : 175 MiB (8%)","torrent":{"xt":"urn:btih:b17a8f3f6c4463d2d37ef79bd06cb6622dbf9540","amp;dn":"Naruto+Episodes+98-113+New+Hokage+Sasukes+Decision+FIXED+MP4+OOT","amp;tr":["udp%3A%2F%2Ftracker.openbittorrent.com%3A80","udp%3A%2F%2Fopen.demonii.com%3A1337","udp%3A%2F%2Ftracker.coppersurfer.tk%3A6969","udp%3A%2F%2Fexodus.desync.com%3A6969"],"infoHash":"b17a8f3f6c4463d2d37ef79bd06cb6622dbf9540","infoHashBuffer":{"type":"Buffer","data":[177,122,143,63,108,68,99,210,211,126,247,155,208,108,182,98,45,191,149,64]},"announce":[],"urlList":[]}}